<svg width="85" height="82" viewBox="0 0 85 82" fill="none" xmlns="http://www.w3.org/2000/svg">
<foreignObject x="-8.39999" y="-7.39999" width="92.8" height="88.8"><div xmlns="http://www.w3.org/1999/xhtml" style="backdrop-filter:blur(10px);clip-path:url(#bgblur_1_202_2_clip_path);height:100%;width:100%"></div></foreignObject><g filter="url(#filter0_di_202_2)" data-figma-bg-blur-radius="20">
<g clip-path="url(#clip0_202_2)">
<rect x="12" y="13" width="48" height="48" rx="12" fill="url(#paint0_linear_202_2)" fill-opacity="0.04" shape-rendering="crispEdges"/>
<g style="mix-blend-mode:plus-lighter" opacity="0.5" filter="url(#filter1_f_202_2)">
<path d="M22 32.9556C22 29.4708 22 27.7284 22.6782 26.3974C23.2747 25.2266 24.2266 24.2747 25.3974 23.6782C26.7284 23 28.4708 23 31.9556 23H40.0444C43.5292 23 45.2716 23 46.6026 23.6782C47.7734 24.2747 48.7253 25.2266 49.3218 26.3974C50 27.7284 50 29.4708 50 32.9556V41.0444C50 44.5292 50 46.2716 49.3218 47.6026C48.7253 48.7734 47.7734 49.7253 46.6026 50.3218C45.2716 51 43.5292 51 40.0444 51H31.9556C28.4708 51 26.7284 51 25.3974 50.3218C24.2266 49.7253 23.2747 48.7734 22.6782 47.6026C22 46.2716 22 44.5292 22 41.0444V32.9556Z" fill="url(#paint1_linear_202_2)"/>
</g>
<path d="M22 32.9556C22 29.4708 22 27.7284 22.6782 26.3974C23.2747 25.2266 24.2266 24.2747 25.3974 23.6782C26.7284 23 28.4708 23 31.9556 23H40.0444C43.5292 23 45.2716 23 46.6026 23.6782C47.7734 24.2747 48.7253 25.2266 49.3218 26.3974C50 27.7284 50 29.4708 50 32.9556V41.0444C50 44.5292 50 46.2716 49.3218 47.6026C48.7253 48.7734 47.7734 49.7253 46.6026 50.3218C45.2716 51 43.5292 51 40.0444 51H31.9556C28.4708 51 26.7284 51 25.3974 50.3218C24.2266 49.7253 23.2747 48.7734 22.6782 47.6026C22 46.2716 22 44.5292 22 41.0444V32.9556Z" fill="url(#paint2_linear_202_2)"/>
<path d="M32.7188 30.6107C32.3859 29.9421 31.8753 30.0013 31.3594 30.0013C30.4375 30.0013 29 31.1056 29 33.1608C29 34.8451 29.7422 36.6889 32.2432 39.447C34.6568 42.1087 37.8281 43.4857 40.4609 43.4388C43.0938 43.3919 43.6354 41.1263 43.6354 40.3612C43.6354 40.022 43.425 39.8528 43.28 39.8069C42.3828 39.3763 40.7281 38.574 40.3516 38.4232C39.9751 38.2725 39.7785 38.4764 39.6563 38.5873C39.3148 38.9127 38.638 39.8716 38.4063 40.0873C38.1745 40.303 37.829 40.1938 37.6853 40.1123C37.1562 39.9 35.7217 39.2619 34.5782 38.1535C33.1641 36.7826 33.0811 36.311 32.8147 35.8911C32.6015 35.5553 32.7579 35.3492 32.836 35.2592C33.1406 34.9076 33.5614 34.3648 33.75 34.0951C33.9387 33.8254 33.7889 33.4159 33.699 33.1608C33.3125 32.0639 32.9851 31.1456 32.7188 30.6107Z" fill="white"/>
<g filter="url(#filter2_f_202_2)">
<ellipse cx="36.5" cy="60.5" rx="11.5" ry="6.5" fill="#22C73D"/>
</g>
</g>
<rect x="12" y="13" width="48" height="48" rx="12" stroke="url(#paint3_linear_202_2)" stroke-opacity="0.5" stroke-width="0.8" shape-rendering="crispEdges"/>
</g>
<g style="mix-blend-mode:screen" filter="url(#filter3_f_202_2)">
<circle cx="29" cy="30" r="9" fill="white" fill-opacity="0.18"/>
</g>
<defs>
<filter id="filter0_di_202_2" x="-8.39999" y="-7.39999" width="92.8" height="88.8" filterUnits="userSpaceOnUse" color-interpolation-filters="sRGB">
<feFlood flood-opacity="0" result="BackgroundImageFix"/>
<feColorMatrix in="SourceAlpha" type="matrix" values="0 0 0 0 0 0 0 0 0 0 0 0 0 0 0 0 0 0 127 0" result="hardAlpha"/>
<feOffset dx="8" dy="4"/>
<feGaussianBlur stdDeviation="8"/>
<feComposite in2="hardAlpha" operator="out"/>
<feColorMatrix type="matrix" values="0 0 0 0 0 0 0 0 0 0 0 0 0 0 0 0 0 0 0.08 0"/>
<feBlend mode="normal" in2="BackgroundImageFix" result="effect1_dropShadow_202_2"/>
<feBlend mode="normal" in="SourceGraphic" in2="effect1_dropShadow_202_2" result="shape"/>
<feColorMatrix in="SourceAlpha" type="matrix" values="0 0 0 0 0 0 0 0 0 0 0 0 0 0 0 0 0 0 127 0" result="hardAlpha"/>
<feOffset/>
<feGaussianBlur stdDeviation="4"/>
<feComposite in2="hardAlpha" operator="arithmetic" k2="-1" k3="1"/>
<feColorMatrix type="matrix" values="0 0 0 0 0.133333 0 0 0 0 0.780392 0 0 0 0 0.239216 0 0 0 0.32 0"/>
<feBlend mode="normal" in2="shape" result="effect2_innerShadow_202_2"/>
</filter>
<clipPath id="bgblur_1_202_2_clip_path" transform="translate(8.39999 7.39999)"><rect x="12" y="13" width="48" height="48" rx="12"/>
</clipPath><filter id="filter1_f_202_2" x="8" y="9" width="56" height="56" filterUnits="userSpaceOnUse" color-interpolation-filters="sRGB">
<feFlood flood-opacity="0" result="BackgroundImageFix"/>
<feBlend mode="normal" in="SourceGraphic" in2="BackgroundImageFix" result="shape"/>
<feGaussianBlur stdDeviation="6" result="effect1_foregroundBlur_202_2"/>
</filter>
<filter id="filter2_f_202_2" x="7" y="36" width="59" height="49" filterUnits="userSpaceOnUse" color-interpolation-filters="sRGB">
<feFlood flood-opacity="0" result="BackgroundImageFix"/>
<feBlend mode="normal" in="SourceGraphic" in2="BackgroundImageFix" result="shape"/>
<feGaussianBlur stdDeviation="9" result="effect1_foregroundBlur_202_2"/>
</filter>
<filter id="filter3_f_202_2" x="0" y="1" width="58" height="58" filterUnits="userSpaceOnUse" color-interpolation-filters="sRGB">
<feFlood flood-opacity="0" result="BackgroundImageFix"/>
<feBlend mode="normal" in="SourceGraphic" in2="BackgroundImageFix" result="shape"/>
<feGaussianBlur stdDeviation="10" result="effect1_foregroundBlur_202_2"/>
</filter>
<linearGradient id="paint0_linear_202_2" x1="12" y1="13" x2="60" y2="61" gradientUnits="userSpaceOnUse">
<stop stop-color="#F8FBFF"/>
<stop offset="1" stop-color="white" stop-opacity="0"/>
</linearGradient>
<linearGradient id="paint1_linear_202_2" x1="36" y1="23" x2="36" y2="51" gradientUnits="userSpaceOnUse">
<stop stop-color="#61F677"/>
<stop offset="1" stop-color="#10BC2B"/>
</linearGradient>
<linearGradient id="paint2_linear_202_2" x1="36" y1="23" x2="36" y2="51" gradientUnits="userSpaceOnUse">
<stop stop-color="#61F677"/>
<stop offset="1" stop-color="#10BC2B"/>
</linearGradient>
<linearGradient id="paint3_linear_202_2" x1="13" y1="12" x2="58.5" y2="61" gradientUnits="userSpaceOnUse">
<stop stop-color="#D8D8D8" stop-opacity="0.05"/>
<stop offset="1" stop-color="white" stop-opacity="0.4"/>
</linearGradient>
<clipPath id="clip0_202_2">
<rect x="12" y="13" width="48" height="48" rx="12" fill="white"/>
</clipPath>
</defs>
</svg>
