<svg width="82" height="82" viewBox="0 0 82 82" fill="none" xmlns="http://www.w3.org/2000/svg">
<foreignObject x="-11.4" y="-7.39999" width="92.8" height="88.8"><div xmlns="http://www.w3.org/1999/xhtml" style="backdrop-filter:blur(10px);clip-path:url(#bgblur_1_1_996_clip_path);height:100%;width:100%"></div></foreignObject><g filter="url(#filter0_di_1_996)" data-figma-bg-blur-radius="20">
<g clip-path="url(#clip0_1_996)">
<rect x="9" y="13" width="48" height="48" rx="12" fill="url(#paint0_linear_1_996)" fill-opacity="0.04" shape-rendering="crispEdges"/>
<g style="mix-blend-mode:plus-lighter" filter="url(#filter1_f_1_996)">
<path d="M22 44.56C22 45.3556 22.65 46 23.4508 46H23.4717C22.6586 46 22 45.3556 22 44.56Z" fill="#FBBC05"/>
<path d="M34.4675 33.4V37.1596L39.5361 33.0712V29.44C39.5361 28.6444 38.8861 28 38.0853 28H27.1042L27.0944 33.4H34.4675Z" fill="#FBBC05"/>
<path d="M34.4675 40.9207H27.0822L27.0736 46.0003H38.0853C38.8873 46.0003 39.5361 45.3559 39.5361 44.5603V41.2819L34.4675 37.1611V40.9207Z" fill="#34A853"/>
<path d="M27.1042 28L22 33.4H27.0956L27.1042 28Z" fill="#EA4335"/>
<path d="M22 40.9204V44.56C22 45.3556 22.6586 46 23.4717 46H27.0736L27.0822 40.9204H22Z" fill="#1967D2"/>
<path d="M27.0957 33.4H22V40.9203H27.0822L27.0957 33.4Z" fill="#4285F4"/>
<path d="M43.9928 43.2799V30.9199C43.7071 29.2796 41.908 31.1599 41.908 31.1599L39.5374 33.0715V41.2807L42.9308 44.0395C44.1559 44.2003 43.9928 43.2799 43.9928 43.2799Z" fill="#34A853"/>
<path d="M34.4675 37.1596L39.5373 41.2815V33.0724L34.4675 37.1596Z" fill="#188038"/>
</g>
<g filter="url(#filter2_d_1_996)">
<path d="M18.0001 47.309C18.0001 48.3939 18.8864 49.2726 19.9784 49.2726H20.0069C18.8981 49.2726 18.0001 48.3939 18.0001 47.309Z" fill="#FBBC05"/>
<path d="M35.0011 32.0908V37.2175L41.9129 31.6425V26.6909C41.9129 25.606 41.0265 24.7272 39.9345 24.7272H24.9603L24.9469 32.0908H35.0011Z" fill="#FBBC05"/>
<path d="M35.0011 42.3464H24.9302L24.9185 49.273H39.9345C41.0282 49.273 41.9129 48.3943 41.9129 47.3094V42.8389L35.0011 37.2197V42.3464Z" fill="#34A853"/>
<path d="M24.9603 24.7272L18 32.0908H24.9486L24.9603 24.7272Z" fill="#EA4335"/>
<path d="M18.0001 42.3459V47.309C18.0001 48.3939 18.8981 49.2726 20.0069 49.2726H24.9185L24.9302 42.3459H18.0001Z" fill="#1967D2"/>
<path d="M24.9486 32.0908H18.0001V42.3458H24.9302L24.9486 32.0908Z" fill="#4285F4"/>
<path d="M47.9902 45.5634V28.709C47.6005 26.4721 45.1472 29.0362 45.1472 29.0362L41.9146 31.643V42.8373L46.5419 46.5992C48.2126 46.8185 47.9902 45.5634 47.9902 45.5634Z" fill="#34A853"/>
<path d="M35.0011 37.2175L41.9145 42.8384V31.6441L35.0011 37.2175Z" fill="#188038"/>
</g>
<g filter="url(#filter3_f_1_996)">
<ellipse cx="33.5" cy="60.5" rx="11.5" ry="6.5" fill="#34A853"/>
</g>
</g>
<rect x="9" y="13" width="48" height="48" rx="12" stroke="url(#paint1_linear_1_996)" stroke-opacity="0.5" stroke-width="0.8" shape-rendering="crispEdges"/>
</g>
<defs>
<filter id="filter0_di_1_996" x="-11.4" y="-7.39999" width="92.8" height="88.8" filterUnits="userSpaceOnUse" color-interpolation-filters="sRGB">
<feFlood flood-opacity="0" result="BackgroundImageFix"/>
<feColorMatrix in="SourceAlpha" type="matrix" values="0 0 0 0 0 0 0 0 0 0 0 0 0 0 0 0 0 0 127 0" result="hardAlpha"/>
<feOffset dx="8" dy="4"/>
<feGaussianBlur stdDeviation="8"/>
<feComposite in2="hardAlpha" operator="out"/>
<feColorMatrix type="matrix" values="0 0 0 0 0 0 0 0 0 0 0 0 0 0 0 0 0 0 0.08 0"/>
<feBlend mode="normal" in2="BackgroundImageFix" result="effect1_dropShadow_1_996"/>
<feBlend mode="normal" in="SourceGraphic" in2="effect1_dropShadow_1_996" result="shape"/>
<feColorMatrix in="SourceAlpha" type="matrix" values="0 0 0 0 0 0 0 0 0 0 0 0 0 0 0 0 0 0 127 0" result="hardAlpha"/>
<feOffset/>
<feGaussianBlur stdDeviation="4"/>
<feComposite in2="hardAlpha" operator="arithmetic" k2="-1" k3="1"/>
<feColorMatrix type="matrix" values="0 0 0 0 0.203922 0 0 0 0 0.658824 0 0 0 0 0.32549 0 0 0 0.32 0"/>
<feBlend mode="normal" in2="shape" result="effect2_innerShadow_1_996"/>
</filter>
<clipPath id="bgblur_1_1_996_clip_path" transform="translate(11.4 7.39999)"><rect x="9" y="13" width="48" height="48" rx="12"/>
</clipPath><filter id="filter1_f_1_996" x="-3" y="1" width="72" height="72" filterUnits="userSpaceOnUse" color-interpolation-filters="sRGB">
<feFlood flood-opacity="0" result="BackgroundImageFix"/>
<feBlend mode="normal" in="SourceGraphic" in2="BackgroundImageFix" result="shape"/>
<feGaussianBlur stdDeviation="10" result="effect1_foregroundBlur_1_996"/>
</filter>
<filter id="filter2_d_1_996" x="15" y="20" width="36" height="36" filterUnits="userSpaceOnUse" color-interpolation-filters="sRGB">
<feFlood flood-opacity="0" result="BackgroundImageFix"/>
<feColorMatrix in="SourceAlpha" type="matrix" values="0 0 0 0 0 0 0 0 0 0 0 0 0 0 0 0 0 0 127 0" result="hardAlpha"/>
<feOffset dy="1"/>
<feGaussianBlur stdDeviation="1"/>
<feComposite in2="hardAlpha" operator="out"/>
<feColorMatrix type="matrix" values="0 0 0 0 0.0627451 0 0 0 0 0.0941176 0 0 0 0 0.156863 0 0 0 0.05 0"/>
<feBlend mode="normal" in2="BackgroundImageFix" result="effect1_dropShadow_1_996"/>
<feBlend mode="normal" in="SourceGraphic" in2="effect1_dropShadow_1_996" result="shape"/>
</filter>
<filter id="filter3_f_1_996" x="4" y="36" width="59" height="49" filterUnits="userSpaceOnUse" color-interpolation-filters="sRGB">
<feFlood flood-opacity="0" result="BackgroundImageFix"/>
<feBlend mode="normal" in="SourceGraphic" in2="BackgroundImageFix" result="shape"/>
<feGaussianBlur stdDeviation="9" result="effect1_foregroundBlur_1_996"/>
</filter>
<linearGradient id="paint0_linear_1_996" x1="9" y1="13" x2="57" y2="61" gradientUnits="userSpaceOnUse">
<stop stop-color="#F8FBFF"/>
<stop offset="1" stop-color="white" stop-opacity="0"/>
</linearGradient>
<linearGradient id="paint1_linear_1_996" x1="10" y1="12" x2="55.5" y2="61" gradientUnits="userSpaceOnUse">
<stop stop-color="#D8D8D8" stop-opacity="0.05"/>
<stop offset="1" stop-color="white" stop-opacity="0.4"/>
</linearGradient>
<clipPath id="clip0_1_996">
<rect x="9" y="13" width="48" height="48" rx="12" fill="white"/>
</clipPath>
</defs>
</svg>
